<svg width="100" height="100" viewBox="0 0 100 100" fill="none" xmlns="http://www.w3.org/2000/svg">
<mask id="path-1-inside-1_2_7" fill="white">
<path d="M50 100L15 100C6.71574 100 7.04229e-06 93.2843 6.31805e-06 85L1.98458e-07 15C-5.25776e-07 6.71573 6.71573 3.78403e-06 15 3.0598e-06L50 0L50 100Z"/>
</mask>
<path d="M50 100L15 100C6.71574 100 7.04229e-06 93.2843 6.31805e-06 85L1.98458e-07 15C-5.25776e-07 6.71573 6.71573 3.78403e-06 15 3.0598e-06L50 0L50 100Z" fill="#7C4DFF"/>
<path d="M54 108L15 108C2.29746 108 -7.99999 97.7026 -7.99999 85L8.00001 85C8.00001 88.866 11.134 92 15 92L46 92L54 108ZM-8 15C-8 2.29746 2.29745 -8 15 -8L54 -8L46 8L15 8C11.134 8 8 11.134 8 15L-8 15ZM54 -8L54 108L46 92L46 8L54 -8ZM15 108C2.29746 108 -7.99999 97.7026 -7.99999 85L-8 15C-8 2.29746 2.29745 -8 15 -8L15 8C11.134 8 8 11.134 8 15L8.00001 85C8.00001 88.866 11.134 92 15 92L15 108Z" fill="black" mask="url(#path-1-inside-1_2_7)"/>
<mask id="path-3-inside-2_2_7" fill="white">
<path d="M50 0H85C93.2843 0 100 6.71573 100 15V50H50V0Z"/>
</mask>
<path d="M50 0H85C93.2843 0 100 6.71573 100 15V50H50V0Z" fill="#78909C"/>
<path d="M46 -8H85C97.7025 -8 108 2.29745 108 15H92C92 11.134 88.866 8 85 8H54L46 -8ZM108 51H46L54 49H92L108 51ZM46 51V-8L54 8V49L46 51ZM85 -8C97.7025 -8 108 2.29745 108 15V51L92 49V15C92 11.134 88.866 8 85 8V-8Z" fill="black" mask="url(#path-3-inside-2_2_7)"/>
<mask id="path-5-inside-3_2_7" fill="white">
<path d="M50 50H100V85C100 93.2843 93.2843 100 85 100H50V50Z"/>
</mask>
<path d="M50 50H100V85C100 93.2843 93.2843 100 85 100H50V50Z" fill="#FAF9F6"/>
<path d="M46 42H108L92 58H54L46 42ZM108 85C108 97.7025 97.7025 108 85 108H46L54 92H85C88.866 92 92 88.866 92 85H108ZM46 108V42L54 58V92L46 108ZM108 42V85C108 97.7025 97.7025 108 85 108V92C88.866 92 92 88.866 92 85V58L108 42Z" fill="black" mask="url(#path-5-inside-3_2_7)"/>
</svg>
